<svg xmlns="http://www.w3.org/2000/svg" viewBox="0 0 289.73 228.58"><defs><style>.cls-1{fill:#000046;}.cls-2{fill:#25cfff;}.cls-3{fill:#ff1ddc;}.cls-4{fill:#fff;}</style></defs><g id="Layer_2" data-name="Layer 2"><g id="OBJECTS"><path class="cls-1" d="M0,199.45c.74,9.28,32.08,21.31,33.23,19.46s4.26,4.44,11.76,4.63,19.61,0,19.61,0a364.5,364.5,0,0,1,79.9-9.47c42.62,0,66.44,9.47,66.44,9.47s23.43,7.32,35.43,4.32,13.87-10.4,22.12-9,16.66-4,17.52-4.84,4.61-9.71,2-20.46S277.6,171,269.62,169.86c-2.25-12.88-11.6-14.15-13.3-19.51s-3.79-14.85-5.56-18-7,1.36-11.14-5-8.63-20-12-23.33-34.21-16-34.21-16,8.33-6.43,9.08-14.69-11.62-16.88-11.62-16.88,3.37-12.18-4.5-18S174.64,18.23,171.69,13,144.5,0,144.5,0L120.32,18.14s-18,41.1-21.33,45.09a21.9,21.9,0,0,0-3.35,21c3.18,8.75,10.15,11.31,10.15,11.31s-23,2.76-33.48,10.85-31.07,42.37-31.07,42.37-5.25,4.86-7.87,4.13-9,19.24-10.13,20.5Z"/><path class="cls-2" d="M141.12,6.51S121,20.44,119.89,25,109.63,48.62,107.5,53.11s-8.14,15.82-8.14,15.82c11-7.78,37.52-15.82,37.52-15.82L108.56,58S121,29.65,124.14,25,141.12,6.51,141.12,6.51Z"/><path class="cls-2" d="M108.76,63.69c-9.4,5.24-7.28,16.57-5.86,18.69s29,36.1,29,36.1c-.29-.32-38.5-29.71-37.51-39.64C95.46,68.27,106.41,55.35,108.76,63.69Z"/><path class="cls-3" d="M202.35,81.32a13.76,13.76,0,0,1-2.26,4.58c-8.32,12.22-36.12,34.68-37,35.39,1-1.08,34.6-37.59,30.77-44.22-1.89-10.63-8.05-14-22.71-20.95-10.62-4.55-31.44-6.3-31.44-6.3l32.91-3.89a130.9,130.9,0,0,0-17.69-2.48c-9.91-.71-26.9,2.48-28,2.48s20.52-12.39,21.59-14.51.42-7.75.07-20.85l16.91,4.57L148.25,1.72l0,0c.65.25,17.43,6.8,23,11.31s4.6,6.73,7.08,13.08,7.78,14.88,12,24.08,1.06,10.27,1.06,10.27S204.59,69.94,202.35,81.32Z"/><path class="cls-4" d="M202.35,81.32a13.76,13.76,0,0,1-2.26,4.58c-.21-3.92,1.1-7.57-3.5-15.59s-15.35-13.74-19.2-15.54l8.7.29h0c-.25-.75-6.75-16.5-8.5-22s-6-16.25-8.25-18S148.94,2.15,148.22,1.7h0c.61.23,17.43,6.79,23,11.31s4.6,6.73,7.08,13.08,7.78,14.88,12,24.08,1.06,10.27,1.06,10.27S204.59,69.94,202.35,81.32Z"/><path class="cls-4" d="M273.34,191.71a18.11,18.11,0,0,0-2.21-1.2c-3.8-1.67-8.9-1.6-13-1.75a27.23,27.23,0,0,0-7.12,1,34.75,34.75,0,0,0-4.28,1.76C255.81,191.15,264.28,189.29,273.34,191.71Z"/><path class="cls-3" d="M284.58,189.43a32.66,32.66,0,0,0-6.75-10c-.78-.76-7.4-6.8-8.24-5.33,2.26-4-.18-8.82-2.23-12.23-1.7-2.82-4-4-6.23-6.12-5.05-4.73-5.77-10-7.93-16.2a9.45,9.45,0,0,0-2.44-4.33c-1.85-1.56-4.57-1.48-6.72-2.56-2.9-1.45-4.86-5.52-6.37-8.24q-3.12-5.62-6.22-11.26c-1.33-2.4-2.72-4.88-4.87-6.58A21.14,21.14,0,0,0,222,104.1q-13.57-6-27.36-11.54l-3.15-1.27c-1.6,1.8-3.09,2.71-3.68,5.18-.53,2.2-.28,4.55-.42,6.8-.24,4-1.61,7.79-3,11.54.32-.91,8.29-2.75,9.42-3.27a11.71,11.71,0,0,1,10.61.61,10.75,10.75,0,0,0,2.92,1.49c3.32.74,6.6-3.33,9.72-2,3,4.09,3,8.42,4.24,13.14,1.32,5.22,2.9,10.37,4.42,15.54a8.32,8.32,0,0,0,1.64,3.44c1.2,1.26,3,1.62,4.73,1.92l4.1.71a2.89,2.89,0,0,1,1.69.7c.65.72.41,1.86.1,2.78-1.28,3.83-3.3,7.12-5,10.74-1.15,2.5-1.9,6.3-4.36,8,8.91-6,14.55-14.56,21.8-22.15,1.59,3.6-.26,7.68-1.53,11.41a2.53,2.53,0,0,0-.2,1.08,2.86,2.86,0,0,0,.44,1.07,14.34,14.34,0,0,1,.9,13.28,22.7,22.7,0,0,1-3,4.56c-.76,1-1.52,1.93-2.29,2.88,1-1.28,4.6-2.24,6.1-3.11a36.78,36.78,0,0,0,6.67-4.39c3.21-3,5.33-7.38,7.87-11,1.35,6.93-1.74,14.72-4.73,21,.75-1.58,4.73-1.48,6-1.09a17.5,17.5,0,0,1,5.18,3.28,24.83,24.83,0,0,1,7.24,9.77c-1.42-.75-2.8-1.55-4.16-2.41l-1.67-1.06c-9.06-2.42-17.53-.56-26.59-.21a7.83,7.83,0,0,1-2.48.69c7.63-.37,15.56,1.07,23.08,2.23a64.82,64.82,0,0,1,11.81,3c1,.35,3.84,1.18,6.33,2.18,2.09.83,3.95,1.78,4.24,2.65A124.93,124.93,0,0,0,284.58,189.43Z"/><path class="cls-4" d="M289.73,202.21c-.29-.87-2.15-1.82-4.24-2.65-2.93-4.56-6.74-11.05-9.9-14.16a30.52,30.52,0,0,0-10.09-6.9c-.6-.32,3.59-13.39,0-16.25s-6.91-3.69-11.66-10.2a33.71,33.71,0,0,1-5.75-13.61l-5.75,3.12s-2.25-5.75-3.75-7.49-13-23-14.56-25.08-33.94-13.68-33.94-13.68l4.56-2.75Q208.44,98.11,222,104.1a21.14,21.14,0,0,1,4.57,2.51c2.15,1.7,3.54,4.18,4.87,6.58q3.11,5.63,6.22,11.26c1.51,2.72,3.47,6.79,6.37,8.24,2.15,1.08,4.87,1,6.72,2.56a9.45,9.45,0,0,1,2.44,4.33c2.16,6.21,2.88,11.47,7.93,16.2,2.26,2.12,4.53,3.3,6.23,6.12,2.05,3.41,4.49,8.27,2.23,12.23.84-1.47,7.46,4.57,8.24,5.33a32.66,32.66,0,0,1,6.75,10A124.93,124.93,0,0,1,289.73,202.21Z"/><path class="cls-4" d="M263.07,198.6a42.4,42.4,0,0,0-8.8-5.31c-6.31-2.73-13.94-3.28-19.88.18a46.22,46.22,0,0,1-4.51,2.73c-4,1.78-9.11.92-12.41,3.78a50,50,0,0,1,40.19,9.34,99.15,99.15,0,0,0-11-10.1l.25,0c-3-1.26-6-2.23-8.83-3.64A59.48,59.48,0,0,1,263.07,198.6Z"/><path class="cls-3" d="M266.18,202.77l4.7,2.56c-2.52-2.32-5.09-4.65-7.81-6.73a59.48,59.48,0,0,0-25-3c2.83,1.41,5.87,2.38,8.83,3.64A34.34,34.34,0,0,1,266.18,202.77Z"/><path class="cls-2" d="M108.29,93.53c-8.32,1.12-17,4.76-24.93,6.94a29.24,29.24,0,0,0-8.63,3.41c-4.3,2.88-6.71,7.75-9.23,12.26A121.32,121.32,0,0,1,49,138.91c-2.58,2.82-5.11,5.94-7.84,8.59-3.3,3.21-6.7,5.41-9.07,9.56-1.21,2.13-2.13,4.43-3.39,6.54C25,169.88,18.56,174.08,14.19,180,10,185.57,3.35,193.6,3.72,201.15a3.56,3.56,0,0,1,1.4-2.56A20.78,20.78,0,0,1,21,192.92c5.84.52,12.19,3.06,18,3a19.19,19.19,0,0,0-9.6,2.66c5.67-.37,11.76-.77,17.38.21A21.23,21.23,0,0,0,37,220.61c1.32-2.18,2.7-4.32,4.12-6.43a26.66,26.66,0,0,1,4.53-5.49,24.67,24.67,0,0,1,6-3.53,80.09,80.09,0,0,1,13.54-4.71c-1.43.36-8.63-5.52-10.7-6.15-3.27-1-6.71-1.6-10-2.65-6.44-2-13.32-2.33-20-2.24a49.16,49.16,0,0,1,23.41,0,32.15,32.15,0,0,0-28.49-4,14.62,14.62,0,0,1,15.08-6c.42-1.25,7.18-14.13,8-13q-3.21-4.58-6.54-9.07c3.76,1.83,6.82,3.24,9.74,6.13s7.61,4.16,10.3,6.94a30.29,30.29,0,0,1-8.3-18,3.3,3.3,0,0,1,.19-1.82,3.43,3.43,0,0,1,.91-1c1.88-1.59,4.25-3.09,5.69-5.11,1.11-1.56,1.7-3.29,3.05-4.76,2.75-3,6.51-4.48,10.3-5.75a6.77,6.77,0,0,0,2.43-1.29,6.81,6.81,0,0,0,1.43-2.44c1.47-3.57,2.47-7.13,3.79-10.71,1.23-3.33,2.6-6.7,5-9.32,2.63-2.87,6.27-4.58,9.87-6.06a148.94,148.94,0,0,1,14.55-4.91,12.75,12.75,0,0,0,4.8-2c.36-.3,2.67-4,2.31-4C110.66,93.26,109.48,93.37,108.29,93.53Z"/><path class="cls-2" d="M121.84,134.07c-2.3-1.16-4.35-2.74-6.62-3.85-2.46-1.21-5-2-7.44-3.42a39.12,39.12,0,0,1-6.56-4.89c-1.42-1.31-3.31-4.72-4.92-5.49A120.55,120.55,0,0,1,110,124.11c-2-2.56-4.65-5.2-6.15-8.06-1.11-2.12-1.74-4.64-2.75-6.86a6.81,6.81,0,0,1-.88-3.46c3.87,3.79,6.68,8.82,10,13.13q3.06,4,6.11,8C117.68,128.63,119.9,133.09,121.84,134.07Z"/><path class="cls-3" d="M217.42,106.15c-1.89,2.27-5.48,3-6.65,5.69a8.19,8.19,0,0,0-.49,3.08l-.72,23.52c3-10.66,6.39-21.87,14.48-29.45Z"/><path class="cls-3" d="M76,143.37c1.5,0,126.75-.75,134.25,0s6.38,3.38,6,9.38-1.53,75-1.53,75-2.56-71.69-5.19-77.69C198.33,147.15,76,143.37,76,143.37Z"/><path class="cls-2" d="M67.84,150.19c0,.25-1.5,78.62,0,77.5s2.25-60.38,3-70.88S69,143,69,143Z"/></g></g></svg>